{"title":"White Bird in a Blizzard 2014 HDRip XviD AC3-GiANGi","uid":11106789,"size":1168093480,"categoryP":"video","categoryS":"movies","magnet":"?xt=urn:btih:178df801054774e39779b3026b8694021482ed0e&amp;dn=White+Bird+in+a+Blizzard+2014+HDRip+XviD+AC3-GiANGi&amp;tr=udp%3A%2F%2Ftracker.openbittorrent.com%3A80&amp;tr=udp%3A%2F%2Fopen.demonii.com%3A1337&amp;tr=udp%3A%2F%2Ftracker.coppersurfer.tk%3A6969&amp;tr=udp%3A%2F%2Fexodus.desync.com%3A6969","seeders":0,"leechers":1,"uploader":"ali1997a","files":10,"time":1411691562,"description":"SilverTorrent - Clean And Verified Torrents Download\n &lt;a href=&quot;\nhttp://i.imgur.com/ky6BGho.png&quot; rel=&quot;nofollow&quot; target=&quot;_NEW&quot;&gt;\nhttp://i.imgur.com/ky6BGho.png&lt;/a&gt;\n &lt;a href=&quot;\nhttp://i.imgur.com/ebFJ2om.jpg&quot; rel=&quot;nofollow&quot; target=&quot;_NEW&quot;&gt;\nhttp://i.imgur.com/ebFJ2om.jpg&lt;/a&gt;\n\nWhite Bird in a Blizzard 2014 HDRip XviD AC3-GiANGi\n\niMDB:http://www.imdb.com/title/tt2238050/\n\nFormat : AVI\n    Format/Info : Audio Video Interleave\n    File size : 1.09 GiB\n    Duration : 1h 31mn\n    Overall bit rate : 1 703 Kbps\n    Writing application : VirtualDubMod 1.5.10.3 | www.virtualdub-fr.org || (build 2550/release)\n    Writing library : VirtualDubMod build 2550/release\n Video #0\n    ID : 0\n    Format : MPEG-4 Visual\n    Format profile : Advanced Simple@L5\n    Format settings, BVOP : 1\n    Format settings, QPel : No\n    Format settings, GMC : No warppoints\n    Format settings, Matrix : Default (H.263)\n    Codec ID : XVID\n    Codec ID/Hint : XviD\n    Duration : 1h 31mn\n    Bit rate : 1 310 Kbps\n    Width : 720 pixels\n    Height : 304 pixels\n    Display aspect ratio : 2.35:1\n    Frame rate : 23.976 fps\n    Color space : YUV\n    Chroma subsampling : 4:2:0\n    Bit depth : 8 bits\n    Scan type : Progressive\n    Compression mode : Lossy\n    Bits/(Pixel*Frame) : 0.250\n    Stream size : 855 MiB (77%)\n    Writing library : XviD 73\n Audio #1\n    ID : 1\n    Format : AC-3\n    Format/Info : Audio Coding 3\n    Mode extension : CM (complete main)\n    Format settings, Endianness : Big\n    Codec ID : 2000\n    Duration : 1h 31mn\n    Bit rate mode : Constant\n    Bit rate : 384 Kbps\n    Channel(s) : 6 channels\n    Channel positions : Front: L C R, Side: L R, LFE\n    Sampling rate : 48.0 KHz\n    Bit depth : 16 bits\n    Compression mode : Lossy\n    Stream size : 251 MiB (23%)\n    Alignment : Split accross interleaves\n    Interleave, duration : 42 ms (1.00 video frame)\n    Interleave, preload duration : 500 ms\n &lt;a href=&quot;\nhttp://i.imgur.com/8Vips80.png&quot; rel=&quot;nofollow&quot; target=&quot;_NEW&quot;&gt;\nhttp://i.imgur.com/8Vips80.png&lt;/a&gt;\n &lt;a href=&quot;\nhttp://i.imgur.com/7Rjccbx.png&quot; rel=&quot;nofollow&quot; target=&quot;_NEW&quot;&gt;\nhttp://i.imgur.com/7Rjccbx.png&lt;/a&gt;","torrent":{"xt":"urn:btih:178df801054774e39779b3026b8694021482ed0e","amp;dn":"White+Bird+in+a+Blizzard+2014+HDRip+XviD+AC3-GiANGi","amp;tr":["udp%3A%2F%2Ftracker.openbittorrent.com%3A80","udp%3A%2F%2Fopen.demonii.com%3A1337","udp%3A%2F%2Ftracker.coppersurfer.tk%3A6969","udp%3A%2F%2Fexodus.desync.com%3A6969"],"infoHash":"178df801054774e39779b3026b8694021482ed0e","infoHashBuffer":{"type":"Buffer","data":[23,141,248,1,5,71,116,227,151,121,179,2,107,134,148,2,20,130,237,14]},"announce":[],"urlList":[]}}